{"title":"Grown Ups 2013 REPACK TS XViD UNiQUE","uid":8735451,"size":742104465,"categoryP":"video","categoryS":"movies","magnet":"?xt=urn:btih:33a091a1e22ca3f87c4f3b899b98968056b225c2&amp;dn=Grown+Ups+2013+REPACK+TS+XViD+UNiQUE&amp;tr=udp%3A%2F%2Ftracker.openbittorrent.com%3A80&amp;tr=udp%3A%2F%2Fopen.demonii.com%3A1337&amp;tr=udp%3A%2F%2Ftracker.coppersurfer.tk%3A6969&amp;tr=udp%3A%2F%2Fexodus.desync.com%3A6969","seeders":7,"leechers":3,"uploader":"xxxlavalxxx","files":-1,"time":1374677686,"description":" &lt;a href=&quot;\nhttp://www.imdb.com/title/tt2191701/&quot; rel=&quot;nofollow&quot; target=&quot;_NEW&quot;&gt;\nhttp://www.imdb.com/title/tt2191701/&lt;/a&gt;\n\n\n\nAfter moving his family back to his hometown to be with his friends and their kids, Lenny finds out that between old bullies, new bullies, schizo bus drivers, drunk cops on skis, and 400 costumed party crashers sometimes crazy follows you. \n\n\n\nDirector:\n Dennis Dugan \n\nWriters:\n Fred Wolf, Adam Sandler\n\nStars:\n Adam Sandler, Kevin James, Chris Rock \n\nGenres:\n  Comedy \n\nCountry:\n USA \n\nLanguage:\n English \n\n\nSource: FREE - Thanks\n\n Notes.:\n Simple truth is time not on my hands so reencode of free release\n REPACKED due to me being a numpty (first release was oos)\n\n\n General\n Complete name                            : Grown Ups 2013 REPACK TS XViD UNiQUE/Grown Ups.avi\n Format                                   : AVI\n Format/Info                              : Audio Video Interleave\n File size                                : 701 MiB\n Duration                                 : 1h 34mn\n Overall bit rate                         : 1 039 Kbps\n Writing application                      : VirtualDubMod 1.5.10.2\n Writing library                          : VirtualDub build 28225/release\n\n Video\n ID                                       : 0\n Format                                   : MPEG-4 Visual\n Format profile                           : Advanced Simple@L5\n Format settings, BVOP                    : 2\n Format settings, QPel                    : No\n Format settings, GMC                     : No warppoints\n Format settings, Matrix                  : Default (H.263)\n Muxing mode                              : Packed bitstream\n Codec ID                                 : XVID\n Codec ID/Hint                            : XviD\n Duration                                 : 1h 34mn\n Bit rate                                 : 901 Kbps\n Width                                    : 642 pixels\n Height                                   : 342 pixels\n Display aspect ratio                     : 1.85:1\n Frame rate                               : 25.000 fps\n Color space                              : YUV\n Chroma subsampling                       : 4:2:0\n Bit depth                                : 8 bits\n Scan type                                : Progressive\n Compression mode                         : Lossy\n Bits/(Pixel*Frame)                       : 0.164\n Stream size                              : 608 MiB (87%)\n Writing library                          : XviD 64\n\n Audio\n ID                                       : 1\n Format                                   : MPEG Audio\n Format version                           : Version 1\n Format profile                           : Layer 3\n Codec ID                                 : 55\n Codec ID/Hint                            : MP3\n Duration                                 : 1h 34mn\n Bit rate mode                            : Constant\n Bit rate                                 : 128 Kbps\n Channel(s)                               : 2 channels\n Sampling rate                            : 44.1 KHz\n Compression mode                         : Lossy\n Delay relative to video                  : 1s 450ms\n Stream size                              : 86.3 MiB (12%)\n Alignment                                : Split accross interleaves\n Interleave, duration                     : 40 ms (1.00 video frame)\n Interleave, preload duration             : 500 ms\n\n\nscreens\n\n\n    &lt;a href=&quot;\thttp://addpix.net/viewer.php?file=60421362965754666459.jpg&quot; rel=&quot;nofollow&quot; target=&quot;_NEW&quot;&gt;\thttp://addpix.net/viewer.php?file=60421362965754666459.jpg&lt;/a&gt;\n    &lt;a href=&quot;\thttp://addpix.net/viewer.php?file=89830489132987496182.jpg&quot; rel=&quot;nofollow&quot; target=&quot;_NEW&quot;&gt;\thttp://addpix.net/viewer.php?file=89830489132987496182.jpg&lt;/a&gt;\n    &lt;a href=&quot;\thttp://addpix.net/viewer.php?file=23374339534152113335.jpg&quot; rel=&quot;nofollow&quot; target=&quot;_NEW&quot;&gt;\thttp://addpix.net/viewer.php?file=23374339534152113335.jpg&lt;/a&gt;\n    &lt;a href=&quot;\thttp://addpix.net/viewer.php?file=29535759796852662908.jpg&quot; rel=&quot;nofollow&quot; target=&quot;_NEW&quot;&gt;\thttp://addpix.net/viewer.php?file=29535759796852662908.jpg&lt;/a&gt;\n\n","torrent":{"xt":"urn:btih:33a091a1e22ca3f87c4f3b899b98968056b225c2","amp;dn":"Grown+Ups+2013+REPACK+TS+XViD+UNiQUE","amp;tr":["udp%3A%2F%2Ftracker.openbittorrent.com%3A80","udp%3A%2F%2Fopen.demonii.com%3A1337","udp%3A%2F%2Ftracker.coppersurfer.tk%3A6969","udp%3A%2F%2Fexodus.desync.com%3A6969"],"infoHash":"33a091a1e22ca3f87c4f3b899b98968056b225c2","infoHashBuffer":{"type":"Buffer","data":[51,160,145,161,226,44,163,248,124,79,59,137,155,152,150,128,86,178,37,194]},"announce":[],"urlList":[]}}